<svg width="128" height="128" viewBox="0 0 128 128" fill="none" xmlns="http://www.w3.org/2000/svg">
<rect width="128" height="128" rx="25" fill="#3586FF"/>
<path d="M40.06 114.16C39.0467 114.16 38.1333 113.933 37.32 113.48C36.5067 113.013 35.86 112.367 35.38 111.54C34.9133 110.713 34.68 109.74 34.68 108.62C34.68 107.487 34.9133 106.507 35.38 105.68C35.86 104.853 36.5067 104.213 37.32 103.76C38.1333 103.307 39.0467 103.08 40.06 103.08C40.9667 103.08 41.76 103.28 42.44 103.68C43.12 104.08 43.6467 104.687 44.02 105.5C44.3933 106.313 44.58 107.353 44.58 108.62C44.58 109.873 44.4 110.913 44.04 111.74C43.68 112.553 43.16 113.16 42.48 113.56C41.8133 113.96 41.0067 114.16 40.06 114.16ZM40.6 111.6C41.1067 111.6 41.5667 111.48 41.98 111.24C42.3933 111 42.72 110.66 42.96 110.22C43.2133 109.767 43.34 109.233 43.34 108.62C43.34 107.993 43.2133 107.46 42.96 107.02C42.72 106.58 42.3933 106.24 41.98 106C41.5667 105.76 41.1067 105.64 40.6 105.64C40.08 105.64 39.6133 105.76 39.2 106C38.7867 106.24 38.4533 106.58 38.2 107.02C37.96 107.46 37.84 107.993 37.84 108.62C37.84 109.233 37.96 109.767 38.2 110.22C38.4533 110.66 38.7867 111 39.2 111.24C39.6133 111.48 40.08 111.6 40.6 111.6ZM43.42 114V111.8L43.48 108.6L43.28 105.42V99.16H46.4V114H43.42ZM55.4277 114.16C54.201 114.16 53.121 113.92 52.1877 113.44C51.2677 112.96 50.5543 112.307 50.0477 111.48C49.541 110.64 49.2877 109.687 49.2877 108.62C49.2877 107.54 49.5343 106.587 50.0277 105.76C50.5343 104.92 51.221 104.267 52.0877 103.8C52.9543 103.32 53.9343 103.08 55.0277 103.08C56.081 103.08 57.0277 103.307 57.8677 103.76C58.721 104.2 59.3943 104.84 59.8877 105.68C60.381 106.507 60.6277 107.5 60.6277 108.66C60.6277 108.78 60.621 108.92 60.6077 109.08C60.5943 109.227 60.581 109.367 60.5677 109.5H51.8277V107.68H58.9277L57.7277 108.22C57.7277 107.66 57.6143 107.173 57.3877 106.76C57.161 106.347 56.8477 106.027 56.4477 105.8C56.0477 105.56 55.581 105.44 55.0477 105.44C54.5143 105.44 54.041 105.56 53.6277 105.8C53.2277 106.027 52.9143 106.353 52.6877 106.78C52.461 107.193 52.3477 107.687 52.3477 108.26V108.74C52.3477 109.327 52.4743 109.847 52.7277 110.3C52.9943 110.74 53.361 111.08 53.8277 111.32C54.3077 111.547 54.8677 111.66 55.5077 111.66C56.081 111.66 56.581 111.573 57.0077 111.4C57.4477 111.227 57.8477 110.967 58.2077 110.62L59.8677 112.42C59.3743 112.98 58.7543 113.413 58.0077 113.72C57.261 114.013 56.401 114.16 55.4277 114.16ZM69.8119 114V111.9L69.6119 111.44V107.68C69.6119 107.013 69.4052 106.493 68.9919 106.12C68.5919 105.747 67.9719 105.56 67.1319 105.56C66.5585 105.56 65.9919 105.653 65.4319 105.84C64.8852 106.013 64.4185 106.253 64.0319 106.56L62.9119 104.38C63.4985 103.967 64.2052 103.647 65.0319 103.42C65.8585 103.193 66.6985 103.08 67.5519 103.08C69.1919 103.08 70.4652 103.467 71.3719 104.24C72.2785 105.013 72.7319 106.22 72.7319 107.86V114H69.8119ZM66.5319 114.16C65.6919 114.16 64.9719 114.02 64.3719 113.74C63.7719 113.447 63.3119 113.053 62.9919 112.56C62.6719 112.067 62.5119 111.513 62.5119 110.9C62.5119 110.26 62.6652 109.7 62.9719 109.22C63.2919 108.74 63.7919 108.367 64.4719 108.1C65.1519 107.82 66.0385 107.68 67.1319 107.68H69.9919V109.5H67.4719C66.7385 109.5 66.2319 109.62 65.9519 109.86C65.6852 110.1 65.5519 110.4 65.5519 110.76C65.5519 111.16 65.7052 111.48 66.0119 111.72C66.3319 111.947 66.7652 112.06 67.3119 112.06C67.8319 112.06 68.2985 111.94 68.7119 111.7C69.1252 111.447 69.4252 111.08 69.6119 110.6L70.0919 112.04C69.8652 112.733 69.4519 113.26 68.8519 113.62C68.2519 113.98 67.4785 114.16 66.5319 114.16ZM76.3556 114V99.16H79.4756V114H76.3556ZM83.1713 114V103.24H86.2913V114H83.1713ZM84.7313 101.74C84.1579 101.74 83.6913 101.573 83.3313 101.24C82.9713 100.907 82.7913 100.493 82.7913 100C82.7913 99.5067 82.9713 99.0933 83.3313 98.76C83.6913 98.4267 84.1579 98.26 84.7313 98.26C85.3046 98.26 85.7713 98.42 86.1313 98.74C86.4913 99.0467 86.6713 99.4467 86.6713 99.94C86.6713 100.46 86.4913 100.893 86.1313 101.24C85.7846 101.573 85.3179 101.74 84.7313 101.74ZM92.9069 114L88.3869 103.24H91.6069L95.3669 112.5H93.7669L97.6669 103.24H100.667L96.1269 114H92.9069ZM107.787 114.16C106.56 114.16 105.48 113.92 104.547 113.44C103.627 112.96 102.914 112.307 102.407 111.48C101.9 110.64 101.647 109.687 101.647 108.62C101.647 107.54 101.894 106.587 102.387 105.76C102.894 104.92 103.58 104.267 104.447 103.8C105.314 103.32 106.294 103.08 107.387 103.08C108.44 103.08 109.387 103.307 110.227 103.76C111.08 104.2 111.754 104.84 112.247 105.68C112.74 106.507 112.987 107.5 112.987 108.66C112.987 108.78 112.98 108.92 112.967 109.08C112.954 109.227 112.94 109.367 112.927 109.5H104.187V107.68H111.287L110.087 108.22C110.087 107.66 109.974 107.173 109.747 106.76C109.52 106.347 109.207 106.027 108.807 105.8C108.407 105.56 107.94 105.44 107.407 105.44C106.874 105.44 106.4 105.56 105.987 105.8C105.587 106.027 105.274 106.353 105.047 106.78C104.82 107.193 104.707 107.687 104.707 108.26V108.74C104.707 109.327 104.834 109.847 105.087 110.3C105.354 110.74 105.72 111.08 106.187 111.32C106.667 111.547 107.227 111.66 107.867 111.66C108.44 111.66 108.94 111.573 109.367 111.4C109.807 111.227 110.207 110.967 110.567 110.62L112.227 112.42C111.734 112.98 111.114 113.413 110.367 113.72C109.62 114.013 108.76 114.16 107.787 114.16Z" fill="white"/>
</svg>
