<svg width="2129" height="222" viewBox="0 0 2129 222" fill="none" xmlns="http://www.w3.org/2000/svg">
<path d="M1.91839 126.391C2.16842 107.276 12.5985 89.7467 29.279 80.4077L71.2706 56.8975C103.157 39.0452 140.858 34.6879 175.976 44.7964L183.574 46.9833C202.923 52.5531 223.434 52.6784 242.851 47.3455L248.773 45.719C285.946 35.509 325.675 47.6285 350.82 76.8488V76.8488C362.183 90.0526 376.804 100.051 393.23 105.85L397.965 107.522C423.581 116.566 451.526 116.542 477.127 107.455L511.596 95.2206C537.045 86.1879 565.16 88.6368 588.664 101.933L618.957 119.071C640.856 131.46 668.492 126.315 684.467 106.876V106.876C699.795 88.2231 725.978 82.6364 747.584 93.4083L775.633 107.392C806.341 122.702 843.542 114.948 865.576 88.6449L877.637 74.2472C901.389 45.8942 945.123 46.2956 968.35 75.0798V75.0798C995.759 109.046 1049.33 102.301 1067.46 62.6L1073.7 48.9488C1085.83 22.3895 1113.56 6.53925 1142.6 9.56678L1207.37 16.3191C1226.79 18.3429 1244.42 28.5489 1255.84 44.3765L1257.68 46.9328C1282.12 80.7911 1331.47 83.7132 1359.72 52.975V52.975C1378.25 32.821 1407.31 26.2079 1432.73 36.3566L1501.56 63.8306C1505.18 65.2726 1508.62 67.102 1511.84 69.2868L1537.62 86.7865C1556.02 99.2782 1581.24 89.6699 1586.67 68.1005V68.1005C1591.69 48.1087 1614.03 38.0052 1632.36 47.4265L1655.74 59.44C1663.98 63.6715 1670.41 70.7247 1673.88 79.3109L1684.47 105.564C1691.8 123.718 1716.59 125.971 1727.07 109.434L1729.18 106.101C1736.46 94.6087 1752.6 92.9983 1762 102.825V102.825C1775.06 116.462 1798.08 107.219 1798.08 88.3367V74.2222C1798.08 52.0201 1823.66 39.5775 1841.13 53.2847L1874.25 79.2756C1899.49 99.0874 1936.72 88.4001 1947.62 58.2156L1956.89 32.5054C1963.08 15.3644 1978.48 3.23812 1996.59 1.24723V1.24723C2021.08 -1.44392 2043.59 14.9304 2048.58 39.0536L2052.76 59.2993C2056.47 77.2524 2071.45 90.69 2089.7 92.4344V92.4344C2110.92 94.4632 2127.21 112.149 2127.5 133.468L2128.66 221.355V221.355C2128.66 221.435 2128.6 221.5 2128.52 221.5H2.58227C2.41239 221.5 2.24555 221.546 2.10001 221.634V221.634C1.47229 222.012 0.673636 221.553 0.683219 220.821L1.91839 126.391Z" fill="#569AFF"/>
</svg>
