<svg width="235" height="235" viewBox="0 0 235 235" fill="none" xmlns="http://www.w3.org/2000/svg">
<circle cx="117.5" cy="117.5" r="117.5" fill="#4D89FF"/>
<path d="M106.773 143.273V142.591C106.848 135.356 107.606 129.598 109.045 125.318C110.485 121.038 112.53 117.572 115.182 114.92C117.833 112.269 121.015 109.826 124.727 107.591C126.962 106.227 128.97 104.617 130.75 102.761C132.53 100.867 133.932 98.6894 134.955 96.2273C136.015 93.7652 136.545 91.0379 136.545 88.0455C136.545 84.3333 135.674 81.1136 133.932 78.3864C132.189 75.6591 129.86 73.5568 126.943 72.0795C124.027 70.6023 120.788 69.8636 117.227 69.8636C114.121 69.8636 111.129 70.5076 108.25 71.7955C105.371 73.0833 102.966 75.1098 101.034 77.875C99.1023 80.6401 97.9848 84.2576 97.6818 88.7273H83.3636C83.6667 82.2879 85.3333 76.7765 88.3636 72.1932C91.4318 67.6098 95.4659 64.1061 100.466 61.6818C105.504 59.2576 111.091 58.0455 117.227 58.0455C123.894 58.0455 129.689 59.3712 134.614 62.0227C139.576 64.6742 143.402 68.3106 146.091 72.9318C148.818 77.553 150.182 82.8182 150.182 88.7273C150.182 92.8939 149.538 96.6629 148.25 100.034C147 103.405 145.182 106.417 142.795 109.068C140.447 111.72 137.606 114.068 134.273 116.114C130.939 118.197 128.269 120.394 126.261 122.705C124.254 124.977 122.795 127.686 121.886 130.83C120.977 133.973 120.485 137.894 120.409 142.591V143.273H106.773ZM114.045 176.909C111.242 176.909 108.837 175.905 106.83 173.898C104.822 171.89 103.818 169.485 103.818 166.682C103.818 163.879 104.822 161.473 106.83 159.466C108.837 157.458 111.242 156.455 114.045 156.455C116.848 156.455 119.254 157.458 121.261 159.466C123.269 161.473 124.273 163.879 124.273 166.682C124.273 168.538 123.799 170.242 122.852 171.795C121.943 173.348 120.712 174.598 119.159 175.545C117.644 176.455 115.939 176.909 114.045 176.909Z" fill="white"/>
</svg>
